<?xml version="1.0" encoding="UTF-8" standalone="no"?>
<svg
   id="Ebene_1"
   viewBox="0 0 82.780001 80.6"
   version="1.1"
   sodipodi:docname="iirds_logo.svg"
   width="82.779999"
   height="80.599998"
   inkscape:export-filename="..\Pictures\favicon.svg"
   inkscape:export-xdpi="96.255127"
   inkscape:export-ydpi="96.255127"
   xmlns:inkscape="http://www.inkscape.org/namespaces/inkscape"
   xmlns:sodipodi="http://sodipodi.sourceforge.net/DTD/sodipodi-0.dtd"
   xmlns="http://www.w3.org/2000/svg"
   xmlns:svg="http://www.w3.org/2000/svg">
  <sodipodi:namedview
     id="namedview11"
     pagecolor="#ffffff"
     bordercolor="#000000"
     borderopacity="0.25"
     inkscape:showpageshadow="2"
     inkscape:pageopacity="0.0"
     inkscape:pagecheckerboard="0"
     inkscape:deskcolor="#d1d1d1">
    <inkscape:page
       x="0"
       y="0"
       width="82.779999"
       height="80.599998"
       id="page2"
       margin="0"
       bleed="0" />
  </sodipodi:namedview>
  <defs
     id="defs3">
    <style
       id="style1">.cls-1{clip-path:url(#clippath-2);}.cls-1,.cls-2,.cls-3,.cls-4{fill:none;}.cls-5,.cls-6{fill:#fff;}.cls-6{stroke:#fff;stroke-miterlimit:22.24;stroke-width:.38px;}.cls-7{fill:#b1b3b4;}.cls-8{fill:#19171a;}.cls-3{clip-path:url(#clippath);}.cls-4{clip-path:url(#clippath-1);}</style>
    <clipPath
       id="clippath-1">
      <rect
         class="cls-2"
         y="0"
         width="283.45999"
         height="86.099998"
         id="rect2"
         x="0" />
    </clipPath>
    <clipPath
       id="clippath-2">
      <rect
         class="cls-2"
         y="0"
         width="283.45999"
         height="86.099998"
         id="rect3"
         x="0" />
    </clipPath>
  </defs>
  <rect
     class="cls-8"
     x="62.390003"
     y="25.539999"
     width="18.83"
     height="53.07"
     id="rect5"
     inkscape:export-filename="favicon.svg"
     inkscape:export-xdpi="96.255127"
     inkscape:export-ydpi="96.255127" />
  <rect
     class="cls-8"
     x="32.389999"
     y="25.539999"
     width="18.83"
     height="53.07"
     id="rect6" />
  <g
     class="cls-4"
     clip-path="url(#clippath-1)"
     id="g7"
     style="fill:#4cc9f5;fill-opacity:1"
     transform="translate(-2.8399999,-3.6)">
    <path
       class="cls-5"
       d="m 74.65,3.6 c -8.27,0 -10.97,3.01 -10.97,11.12 0,8.11 2.71,10.82 10.97,10.82 8.26,0 10.97,-2.86 10.97,-10.82 C 85.62,6.76 82.76,3.6 74.65,3.6"
       id="path6"
       style="fill:#4cc9f5;fill-opacity:1" />
    <path
       class="cls-5"
       d="m 44.65,3.6 c -8.27,0 -10.97,3.01 -10.97,11.12 0,8.11 2.71,10.82 10.97,10.82 8.26,0 10.97,-2.86 10.97,-10.82 C 55.62,6.76 52.76,3.6 44.65,3.6"
       id="path7"
       style="fill:#4cc9f5;fill-opacity:1" />
  </g>
  <polygon
     class="cls-8"
     points="24.47,43.63 15.28,48.74 8.54,44.27 8.54,49.45 15.46,53.24 24.78,48.68 "
     id="polygon7"
     transform="translate(-2.8399999,-3.6)" />
  <rect
     class="cls-8"
     x="0"
     y="49.370003"
     width="21.639999"
     height="4.5"
     id="rect7" />
  <g
     class="cls-1"
     clip-path="url(#clippath-2)"
     id="g11"
     transform="translate(-2.8399999,-3.6)">
    <path
       class="cls-8"
       d="m 16.2,33.56 c 2.14,0 3.56,0.19 4.26,0.58 0.7,0.38 1.06,1.13 1.06,2.22 0,1.09 -0.36,1.84 -1.07,2.24 -0.71,0.39 -2.13,0.59 -4.25,0.59 -2.12,0 -3.54,-0.2 -4.25,-0.59 -0.71,-0.39 -1.07,-1.14 -1.07,-2.24 0,-1.1 0.35,-1.84 1.06,-2.22 0.7,-0.38 2.12,-0.58 4.27,-0.58 m 0,-4.45 c -2.83,0 -4.98,0.55 -6.45,1.65 -1.46,1.1 -2.2,2.96 -2.2,5.59 0,2.63 0.74,4.5 2.21,5.62 1.47,1.12 3.62,1.67 6.43,1.67 2.81,0 4.96,-0.56 6.43,-1.67 1.47,-1.12 2.21,-2.99 2.21,-5.62 0,-2.63 -0.73,-4.49 -2.2,-5.59 -1.46,-1.1 -3.61,-1.65 -6.45,-1.65"
       id="path8" />
    <path
       class="cls-8"
       d="m 12.48,22.58 c -0.32,-0.45 -0.6,-0.99 -0.83,-1.63 -0.23,-0.64 -0.35,-1.21 -0.35,-1.72 0,-0.51 0.15,-0.88 0.45,-1.13 0.3,-0.24 1.18,-0.37 2.65,-0.37 H 24.48 V 13.37 H 13.92 c -0.34,0 -0.81,0.02 -1.41,0.06 -0.81,-1.18 -1.21,-2.29 -1.21,-3.32 0,-0.54 0.15,-0.94 0.46,-1.2 0.31,-0.25 1.19,-0.38 2.63,-0.38 H 24.47 V 4.11 H 13.63 c -1.93,0 -3.44,0.33 -4.52,1 -1.08,0.67 -1.62,1.81 -1.62,3.42 0,0.69 0.13,1.42 0.38,2.17 0.25,0.75 0.5,1.34 0.75,1.77 0.24,0.43 0.58,0.99 1.01,1.66 -1.43,0.71 -2.14,1.92 -2.14,3.63 0,0.71 0.14,1.47 0.41,2.28 0.27,0.81 0.52,1.41 0.73,1.8 0.22,0.39 0.53,0.94 0.94,1.63 v 0.17 l -1.66,0.51 v 2.79 H 24.46 V 22.58 H 12.47 Z"
       id="path9" />
    <path
       class="cls-7"
       d="m 14.85,63.71 0.14,6.48 c -0.9,-0.02 -1.61,-0.07 -2.11,-0.14 -0.51,-0.07 -0.97,-0.24 -1.41,-0.49 -0.43,-0.25 -0.73,-0.62 -0.9,-1.1 -0.17,-0.48 -0.25,-1.09 -0.25,-1.83 0,-0.74 0.07,-1.24 0.2,-1.51 0.09,-0.17 0.16,-0.32 0.21,-0.45 0.05,-0.13 0.16,-0.25 0.35,-0.35 0.19,-0.1 0.31,-0.19 0.38,-0.25 0.07,-0.06 0.24,-0.12 0.53,-0.17 0.29,-0.05 0.48,-0.08 0.56,-0.1 0.08,-0.02 0.32,-0.04 0.7,-0.06 0.39,-0.02 0.63,-0.03 0.75,-0.03 h 0.84 z m 8.64,-2.93 -2.48,0.79 0.31,0.87 c 0.56,1.69 0.84,3.29 0.84,4.81 0,0.79 -0.21,1.42 -0.62,1.89 -0.66,0.71 -2.03,1.07 -4.11,1.07 V 60.39 H 15.4 c -2.78,0 -4.77,0.52 -5.97,1.56 -1.2,1.04 -1.8,2.6 -1.8,4.69 0,4.66 2.87,6.98 8.6,6.98 5.73,0 8.6,-2.35 8.6,-7.04 0,-2.03 -0.45,-3.96 -1.35,-5.8 m 0.13,20.28 c 0.78,-0.7 1.17,-1.8 1.17,-3.28 0,-0.84 -0.08,-1.59 -0.23,-2.22 h -2.62 l 0.08,1.8 c 0,0.67 -0.14,1.09 -0.44,1.25 -0.29,0.16 -1.07,0.24 -2.32,0.24 H 11.42 V 75.53 H 8.89 v 3.29 H 5.06 v 2.51 l 3.88,0.65 0.39,2.03 h 2.03 v -1.89 h 7.74 c 2.21,0 3.71,-0.35 4.49,-1.06"
       id="path10" />
    <path
       class="cls-6"
       d="m 14.85,63.71 0.14,6.48 c -0.9,-0.02 -1.61,-0.07 -2.11,-0.14 -0.51,-0.07 -0.97,-0.24 -1.41,-0.49 -0.43,-0.25 -0.73,-0.62 -0.9,-1.1 -0.17,-0.48 -0.25,-1.09 -0.25,-1.83 0,-0.74 0.07,-1.24 0.2,-1.51 0.09,-0.17 0.16,-0.32 0.21,-0.45 0.05,-0.13 0.16,-0.25 0.35,-0.35 0.19,-0.1 0.31,-0.19 0.38,-0.25 0.07,-0.06 0.24,-0.12 0.53,-0.17 0.29,-0.05 0.48,-0.08 0.56,-0.1 0.08,-0.02 0.32,-0.04 0.7,-0.06 0.39,-0.02 0.63,-0.03 0.75,-0.03 h 0.84 z m 8.64,-2.93 -2.48,0.79 0.31,0.87 c 0.56,1.69 0.84,3.29 0.84,4.81 0,0.79 -0.21,1.42 -0.62,1.89 -0.66,0.71 -2.03,1.07 -4.11,1.07 V 60.39 H 15.4 c -2.78,0 -4.77,0.52 -5.97,1.56 -1.2,1.04 -1.8,2.6 -1.8,4.69 0,4.66 2.87,6.98 8.6,6.98 5.73,0 8.6,-2.35 8.6,-7.04 0,-2.03 -0.45,-3.96 -1.35,-5.8 z m 0.13,20.28 c 0.78,-0.7 1.17,-1.8 1.17,-3.28 0,-0.84 -0.08,-1.59 -0.23,-2.22 h -2.62 l 0.08,1.8 c 0,0.67 -0.14,1.09 -0.44,1.25 -0.29,0.16 -1.07,0.24 -2.32,0.24 H 11.43 V 75.53 H 8.9 v 3.29 H 5.07 v 2.51 l 3.88,0.65 0.39,2.03 h 2.03 v -1.89 h 7.74 c 2.21,0 3.71,-0.35 4.49,-1.06 z"
       id="path11"
       style="fill:#aaaaac;fill-opacity:1" />
  </g>
</svg>
